<svg width="1000px" height="1000px" viewBox="0 0 1000 1000" role="img" xmlns="http://www.w3.org/2000/svg"><title>OpenAI icon</title><path d="M928.417 409.208a249.583 249.583 0 0 0 -21.5 -204.583 252.083 252.083 0 0 0 -271.25 -120.833A252.708 252.708 0 0 0 207.542 174.167a249.583 249.583 0 0 0 -166.583 120.833 252.083 252.083 0 0 0 30.958 295.708 249.167 249.167 0 0 0 21.25 204.625 252.083 252.083 0 0 0 271.458 120.833A249.583 249.583 0 0 0 552.5 1000a252.5 252.5 0 0 0 240.5 -175.25 250 250 0 0 0 166.542 -120.833 252.5 252.5 0 0 0 -31.125 -294.708zM552.5 934.583a186.667 186.667 0 0 1 -119.833 -43.333l5.875 -3.375 199.125 -114.917a33.333 33.333 0 0 0 16.333 -28.375v-280.708l84.167 48.667a2.917 2.917 0 0 1 1.583 2.167v232.625a187.667 187.667 0 0 1 -187.25 187.25M150 762.667a186.25 186.25 0 0 1 -22.292 -125.583l5.917 3.542 199.292 114.958a32.083 32.083 0 0 0 32.5 0l243.458 -140.375v97.167a3.333 3.333 0 0 1 -1.375 2.583L405.833 831.25a187.5 187.5 0 0 1 -255.833 -68.583M97.5 329a187.5 187.5 0 0 1 98.583 -82.208V483.333a32.083 32.083 0 0 0 16.167 28.208l242.292 139.75 -84.167 48.667a3.333 3.333 0 0 1 -2.958 0l-201.25 -116.083A187.667 187.667 0 0 1 97.5 328zm691.542 160.625 -243.042 -141.125L629.958 300a3.333 3.333 0 0 1 2.958 0l201.25 116.292a187.25 187.25 0 0 1 -28.167 337.708v-236.583a32.917 32.917 0 0 0 -16.958 -27.792zm83.75 -125.958 -5.875 -3.542 -198.917 -115.917a32.5 32.5 0 0 0 -32.708 0L392.042 384.583V287.375a2.917 2.917 0 0 1 1.167 -2.542l201.25 -116.125a187.5 187.5 0 0 1 278.333 194.167zm-526.667 172.292 -84.167 -48.5a3.333 3.333 0 0 1 -1.583 -2.375V253.125a187.5 187.5 0 0 1 307.292 -143.875l-5.917 3.333 -199.083 114.917a33.333 33.333 0 0 0 -16.375 28.375zm45.708 -98.542 108.417 -62.5 108.625 62.5v124.958l-108.208 62.5 -108.625 -62.5Z"/></svg>